<?xml version="1.0" encoding="utf-8"?>
<!-- Generator: Adobe Illustrator 23.0.6, SVG Export Plug-In . SVG Version: 6.00 Build 0)  -->
<svg version="1.1" id="Circle_Wire_Frame_Craft_Pattern"
	 xmlns="http://www.w3.org/2000/svg" xmlns:xlink="http://www.w3.org/1999/xlink" x="0px" y="0px" viewBox="0 0 864 864"
	 style="fill: #262626" xml:space="preserve">
<path d="M788.6,381.8c-12.7-90.7-59.9-171.1-133-226.2c-15.9-12-32.5-22.5-49.9-31.4c-70.1-47.1-154-66.5-238.3-54.8
	c-90.7,12.7-171.1,59.9-226.2,133c-55.2,73.1-78.6,163.3-66,254c0.9,6.5,2,12.9,3.3,19.3c0.6,8.9,1.4,17.9,2.7,26.8
	c12.7,90.7,59.9,171.1,133,226.2c60.1,45.4,131.8,69.3,205.9,69.3c16,0,32-1.1,48.1-3.4c76.3-10.6,145.3-45.8,198.1-100.2
	c20.8-17.1,39.7-36.7,56.3-58.7C777.9,562.7,801.3,472.5,788.6,381.8z M617.5,140.7c65.4,49.4,109.7,119.3,126.3,198.8
	c-22.2-62.5-62.1-117.2-116.3-158c-73.1-55.2-163.3-78.6-254-66c-42.8,6-83.4,19.7-120,40.1c43.6-31.3,94.4-51.7,149.1-59.4
	c15.7-2.2,31.3-3.3,46.7-3.3c55.1,0,107.9,13.6,154.6,38C608.5,134.1,613,137.3,617.5,140.7z M689.1,657.6
	c-8.2,10.8-16.9,21-26.1,30.6c-46.4,38.4-103.6,64.9-167.5,73.8c-63.3,8.8-126.4-0.3-183.3-25.8c32.8,10.3,67.2,15.6,102,15.6
	c16,0,32-1.1,48.1-3.4c90.7-12.7,171.1-59.9,226.2-133c39.4-52.2,62.6-113,68-176.6C760.5,517.5,737,594.1,689.1,657.6z M85.4,474.8
	C80.5,395,104,317,152.7,252.5c3.9-5.2,8-10.3,12.2-15.2c-47.6,70.3-67.2,154.5-55.4,239.2c10.8,77.2,46.6,147,102.2,200
	C145.7,626.5,101.4,555.4,85.4,474.8z M246.5,697.4c-71.6-54.1-117.9-132.9-130.3-221.8c-12.4-88.9,10.6-177.3,64.7-249
	c8.5-11.3,17.6-21.9,27.3-31.9c47.2-38.7,104.3-63.9,166.3-72.6c15.8-2.2,31.5-3.3,47.1-3.3c72.6,0,142.9,23.4,201.8,67.9
	c66.4,50.1,111,121.4,127,202.4C760.8,562.3,636,717.4,461.4,741.8c-69.5,9.7-138.6-2.2-199.7-33.7
	C256.5,704.7,251.5,701.1,246.5,697.4z M146.7,206.4c54.1-71.6,132.9-117.9,221.8-130.3c15.8-2.2,31.5-3.3,47.2-3.3
	c47.2,0,93.4,9.9,136.2,29.1c-47.9-15.1-99-19.4-150.2-12.3c-76.3,10.6-145.3,45.8-198.1,100.2c-20.8,17.1-39.7,36.7-56.3,58.7
	c-39.4,52.2-62.6,113-68,176.6C75.3,346.5,98.8,269.9,146.7,206.4z M467.3,787.9c-15.8,2.2-31.5,3.3-47.2,3.3
	c-72.6,0-142.9-23.4-201.8-67.9C153,673.9,108.7,604,92,524.5c22.2,62.5,62.1,117.2,116.3,158c15.8,12,32.5,22.4,49.7,31.3
	c56.8,38.2,122.5,58.2,190.3,58.2c16,0,32-1.1,48.1-3.4c42.8-6,83.4-19.7,120-40.1C572.8,759.9,522,780.3,467.3,787.9z M705.9,645.7
	c47-70.1,66.4-153.8,54.6-238c-0.9-6.5-2-12.9-3.3-19.3c-0.6-8.9-1.4-17.9-2.7-26.8c-10.7-76.7-46.1-146-101-198.9
	c67.6,51.9,115.8,129.2,128.4,220.1C795.6,480.9,765.2,575.3,705.9,645.7z"/>
</svg>
